<?xml version="1.0" encoding="utf-8"?>
<!-- Svg Vector Icons : http://www.onlinewebfonts.com/icon -->
<!DOCTYPE svg PUBLIC "-//W3C//DTD SVG 1.1//EN" "http://www.w3.org/Graphics/SVG/1.1/DTD/svg11.dtd">
<svg version="1.1" xmlns="http://www.w3.org/2000/svg" xmlns:xlink="http://www.w3.org/1999/xlink" x="0px" y="0px" viewBox="0 0 256 256" enable-background="new 0 0 256 256" xml:space="preserve">
<metadata> Svg Vector Icons : http://www.onlinewebfonts.com/icon </metadata>
<g><g><g><g><path fill="#000000" d="M50.7,126.6c7.6,0.3,4,61.3,4,64.4c0,0,13,16.6,54.9,16.6h2.3c41.9,0,54.9-16.7,54.9-16.7c0-2.5-2.4-43.2,0.7-58.9c-9.9-8.6-16.6-20.8-17.9-34.5c-10.8-2.4-23.4-3.8-37.7-3.8h-2.3c-75.3,0-99.6,40.1-99.6,40.1l38.5,17.8C48.5,151.7,45.1,126.6,50.7,126.6z M143.7,133.3c3.7,0,6.6,3,6.6,6.6c0,3.7-3,6.6-6.6,6.6s-6.6-3-6.6-6.6C137,136.2,140,133.3,143.7,133.3z M89.5,161c7.6-5.4,19.3-4.5,19.3-4.5l3.2,0c0,0,11.4-0.8,19,4.6c7.6,5.4-18.7,13.8-18.7,13.8l-2.1,0.5l-2-0.5C108.3,174.7,81.9,166.4,89.5,161z M75.8,133.3c3.7,0,6.6,3,6.6,6.6c0,3.7-3,6.6-6.6,6.6c-3.7,0-6.6-3-6.6-6.6C69.1,136.2,72.1,133.3,75.8,133.3z"/><path fill="#000000" d="M174,136.9c0,6.8-1,14.3-1,14.3l17-7.6C184.2,142.2,178.8,140,174,136.9z"/><path fill="#000000" d="M201.7,136.8c1.2,0,2.4-0.1,3.6-0.2c22.8-1.8,40.7-20.9,40.7-44.1c0-24.4-19.8-44.3-44.3-44.3c-24.4,0-44.3,19.8-44.3,44.3c0,2.4,0.2,4.8,0.6,7.2C161.5,120.8,179.7,136.8,201.7,136.8z M186.3,85.6h12.2V73.4c0-2.2,1.8-4.1,4.1-4.1c2.2,0,4.1,1.8,4.1,4.1v12.2h12.2c2.2,0,4.1,1.8,4.1,4.1s-1.8,4.1-4.1,4.1h-12.2V106c0,2.2-1.8,4.1-4.1,4.1c-2.2,0-4.1-1.8-4.1-4.1V93.7h-12.2c-2.2,0-4.1-1.8-4.1-4.1S184.1,85.6,186.3,85.6z"/></g></g><g></g><g></g><g></g><g></g><g></g><g></g><g></g><g></g><g></g><g></g><g></g><g></g><g></g><g></g><g></g></g></g>
</svg>